<?xml version="1.0" standalone="no"?><!DOCTYPE svg PUBLIC "-//W3C//DTD SVG 1.1//EN" "http://www.w3.org/Graphics/SVG/1.1/DTD/svg11.dtd"><svg t="1672074148055" class="icon" viewBox="0 0 1024 1024" version="1.1" xmlns="http://www.w3.org/2000/svg" p-id="6755" xmlns:xlink="http://www.w3.org/1999/xlink" width="200" height="200"><path d="M528.5888 547.7376c63.3344-40.192 105.472-110.848 105.472-191.232 0-124.8256-101.5296-226.3552-226.3552-226.3552s-226.304 101.5296-226.304 226.3552c0 80.384 42.1376 151.0912 105.472 191.232-127.2832 48.7936-217.9072 172.1856-217.9072 316.416 0 15.5648 12.5952 28.16 28.16 28.16s28.16-12.5952 28.16-28.16c0-150.272 117.9648-273.4592 266.1376-281.9584 5.376 0.4096 10.8544 0.6656 16.3328 0.6656s10.9056-0.256 16.3328-0.6656c148.1728 8.4992 266.1376 131.6864 266.1376 281.9584 0 15.5648 12.5952 28.16 28.16 28.16s28.16-12.5952 28.16-28.16c0-144.2304-90.6752-267.6224-217.9584-316.416zM237.7216 356.5056c0-93.7472 76.288-170.0352 170.0352-170.0352s170.0352 76.288 170.0352 170.0352c0 88.4224-67.84 161.28-154.2656 169.2672-5.2224-0.256-10.496-0.4096-15.7696-0.4096s-10.5472 0.1536-15.7696 0.4096c-86.4256-7.9872-154.2656-80.8448-154.2656-169.2672z" fill="#4E8CEE" p-id="6756"></path><path d="M793.2416 528.7424c47.7184-34.0992 78.8992-89.9072 78.8992-152.8832 0-103.6288-84.2752-187.904-187.904-187.904-15.5648 0-28.16 12.5952-28.16 28.16s12.5952 28.16 28.16 28.16c72.5504 0 131.584 59.0336 131.584 131.584 0 68.3008-52.3264 124.6208-119.04 130.9696-4.1472-0.2048-8.3456-0.3072-12.544-0.3072-15.5648 0-28.16 12.5952-28.16 28.16v0.9216c0 15.5648 12.5952 28.16 28.16 28.16 4.4032 0 8.8064-0.2048 13.1072-0.512 116.4288 6.8096 209.0496 103.68 209.0496 221.7472 0 15.5648 12.5952 28.16 28.16 28.16s28.16-12.5952 28.16-28.16c0.0512-114.8928-69.9392-213.76-169.472-256.256z" fill="#4E8CEE" p-id="6757"></path></svg>