<?xml version="1.0" standalone="no"?><!DOCTYPE svg PUBLIC "-//W3C//DTD SVG 1.1//EN" "http://www.w3.org/Graphics/SVG/1.1/DTD/svg11.dtd"><svg t="1670670539808" class="icon" viewBox="0 0 1024 1024" version="1.1" xmlns="http://www.w3.org/2000/svg" p-id="1375" xmlns:xlink="http://www.w3.org/1999/xlink" width="200" height="200"><path d="M588.8 576c63.616 0 115.2 36.864 115.2 82.304v246.784h111.808c10.24 0 18.688-6.656 20.672-15.616l0.448-3.904V603.456c0-15.168 13.248-27.456 29.504-27.456 14.528 0 26.56 9.728 29.12 22.528l0.448 4.928v282.112c0 38.656-31.808 70.464-72.448 74.112l-7.68 0.32H208.128c-41.664 0-75.968-29.504-79.808-67.264L128 885.568V603.456C128 588.288 141.248 576 157.568 576c14.464 0 26.56 9.728 29.056 22.528l0.448 4.928v282.112c0 9.472 7.232 17.344 16.832 19.2l4.288 0.384H320v-246.848c0-42.88 46.016-78.208 104.704-81.92L435.2 576z m8.512 64H426.688c-23.616 0-42.688 11.52-42.688 25.6V896h256v-230.4c0-12.544-15.104-23.04-35.008-25.216L597.312 640z m-24.32-564.16l6.912 6.208 407.296 407.296a32 32 0 0 1-40.832 48.96l-4.48-3.648L534.72 127.36a32 32 0 0 0-40.832-3.712l-4.48 3.712-407.296 407.296a32 32 0 0 1-48.896-40.832l3.648-4.48L444.16 82.048a96 96 0 0 1 128.96-6.208z" p-id="1376"></path></svg>