<?xml version="1.0" standalone="no"?><!DOCTYPE svg PUBLIC "-//W3C//DTD SVG 1.1//EN" "http://www.w3.org/Graphics/SVG/1.1/DTD/svg11.dtd"><svg t="1672393596791" class="icon" viewBox="0 0 1025 1024" version="1.1" xmlns="http://www.w3.org/2000/svg" p-id="1168" xmlns:xlink="http://www.w3.org/1999/xlink" width="200.1953125" height="200"><path d="M512.640801 798.010847a289.001252 289.001252 0 1 1 288.14685-289.001252A289.428452 289.428452 0 0 1 512.640801 798.010847z m0-513.922403a224.921151 224.921151 0 1 0 224.06675 224.921151A225.134752 225.134752 0 0 0 512.640801 284.088444zM274.476429 291.564456a32.04005 32.04005 0 0 1-21.360034-8.544014L178.142678 213.600334a32.04005 32.04005 0 0 1 43.788069-46.778473l74.546516 69.847309a32.04005 32.04005 0 0 1-21.360033 55.322486zM64.0801 536.991239a32.04005 32.04005 0 0 1 0-64.0801L165.113058 469.920734a32.04005 32.04005 0 0 1 1.922403 64.0801l-101.887359 3.204005zM190.958698 856.110138a31.82645 31.82645 0 0 1-23.496036-53.827284l69.847309-74.546517a32.25365 32.25365 0 0 1 45.283271-1.495202 31.82645 31.82645 0 0 1 1.495202 45.283271L213.600334 846.070922a32.25365 32.25365 0 0 1-22.641636 10.039216zM506.232791 992.17355A32.04005 32.04005 0 0 1 474.192741 961.201502l-3.204005-101.887359a32.04005 32.04005 0 1 1 64.0801-2.136004l3.417605 102.10096a32.25365 32.25365 0 0 1-31.185648 33.108052zM825.35169 865.294952a31.399249 31.399249 0 0 1-21.360034-8.757614l-74.546516-69.847309a32.04005 32.04005 0 0 1 44.001669-46.564873l74.332916 69.84731a31.82645 31.82645 0 0 1 0.854401 44.428869 32.680851 32.680851 0 0 1-23.282436 10.893617zM859.100542 553.224864a32.04005 32.04005 0 0 1 0-64.0801l102.10096-3.204005a32.04005 32.04005 0 0 1 2.136003 64.0801l-102.100959 3.204005zM764.475594 305.448477a32.25365 32.25365 0 0 1-21.360033-8.757613 31.82645 31.82645 0 0 1-1.495202-45.283271L811.681268 177.074677a32.04005 32.04005 0 1 1 46.778473 43.788068l-69.847309 74.332916a32.04005 32.04005 0 0 1-24.136838 10.252816z" p-id="1169"></path><path d="M522.252816 196.939508A31.82645 31.82645 0 0 1 491.280768 165.967459L487.008761 64.0801a32.04005 32.04005 0 0 1 31.185649-32.894451A31.399249 31.399249 0 0 1 551.088861 61.944097l4.272007 102.100959a31.82645 31.82645 0 0 1-32.04005 32.894452z" p-id="1170"></path></svg>