<?xml version="1.0" standalone="no"?><!DOCTYPE svg PUBLIC "-//W3C//DTD SVG 1.1//EN" "http://www.w3.org/Graphics/SVG/1.1/DTD/svg11.dtd"><svg t="1671040596562" class="icon" viewBox="0 0 1028 1024" version="1.1" xmlns="http://www.w3.org/2000/svg" p-id="6948" data-spm-anchor-id="a313x.7781069.0.i6" xmlns:xlink="http://www.w3.org/1999/xlink" width="200.78125" height="200"><path d="M81.202981 578.782609l146.285715-146.285715c19.080745-19.080745 50.881988-19.080745 69.962733 0 19.080745 19.080745 19.080745 50.881988 6.360248 69.962733l-6.360248 6.360249-146.285715 146.285714c-57.242236 57.242236-57.242236 159.006211 0 216.248447 57.242236 57.242236 152.645963 57.242236 209.888199 6.360249l6.360248-6.360249L513.699876 725.068323c19.080745-19.080745 50.881988-19.080745 69.962733 0 19.080745 19.080745 19.080745 50.881988 6.360248 69.962733l-6.360248 6.360248-146.285715 146.285715c-101.763975 101.763975-260.770186 101.763975-362.534161 0-95.403727-95.403727-101.763975-254.409938-6.360249-356.173913l12.720497-12.720497z m502.459628-502.459628c101.763975-101.763975 260.770186-101.763975 362.534161 0 101.763975 101.763975 101.763975 260.770186 0 362.534162l-146.285714 146.285714c-19.080745 19.080745-50.881988 19.080745-69.962733 0s-19.080745-50.881988 0-69.962733l146.285714-146.285714c57.242236-57.242236 57.242236-159.006211 0-216.248447s-159.006211-57.242236-216.248447 0L513.699876 292.571429c-19.080745 19.080745-50.881988 19.080745-69.962733 0-19.080745-19.080745-19.080745-50.881988 0-69.962733l139.925466-146.285715z m0 286.21118c19.080745-19.080745 50.881988-19.080745 69.962733 0s19.080745 50.881988 0 69.962733l-216.248448 216.248448c-19.080745 19.080745-50.881988 19.080745-69.962733 0s-19.080745-50.881988 0-69.962733l216.248448-216.248448z" p-id="6949" data-spm-anchor-id="a313x.7781069.0.i5"></path></svg>