<?xml version="1.0" standalone="no"?><!DOCTYPE svg PUBLIC "-//W3C//DTD SVG 1.1//EN" "http://www.w3.org/Graphics/SVG/1.1/DTD/svg11.dtd"><svg t="1670670525144" class="icon" viewBox="0 0 1024 1024" version="1.1" xmlns="http://www.w3.org/2000/svg" p-id="958" xmlns:xlink="http://www.w3.org/1999/xlink" width="200" height="200"><path d="M128 192.384v639.232C128 867.2 156.8 896 192.384 896h639.232C867.2 896 896 867.2 896 831.616V192.384C896 156.8 867.2 128 831.616 128H192.384C156.8 128 128 156.8 128 192.384z m-64 0C64 121.472 121.408 64 192.384 64h639.232C902.528 64 960 121.408 960 192.384v639.232A128.32 128.32 0 0 1 831.616 960H192.384A128.32 128.32 0 0 1 64 831.616V192.384z" p-id="959"></path></svg>